{"title":"Waking Madison 2010 720p BluRay x264 iFPD DUAL Thyrso10","uid":10605002,"size":4991718579,"categoryP":"video","categoryS":"hd___movies","magnet":"?xt=urn:btih:5f081b8b7a57ba206f2c82b9d081c8764ab07854&amp;dn=Waking+Madison+2010+720p+BluRay+x264+iFPD+DUAL+Thyrso10&amp;tr=udp%3A%2F%2Ftracker.openbittorrent.com%3A80&amp;tr=udp%3A%2F%2Fopen.demonii.com%3A1337&amp;tr=udp%3A%2F%2Ftracker.coppersurfer.tk%3A6969&amp;tr=udp%3A%2F%2Fexodus.desync.com%3A6969","seeders":1,"leechers":0,"uploader":"Alemao99","files":5,"time":1405976524,"description":"When the pressure of living an ordinary life becomes unbearable, a troubled young woman from New Orleans, suffering from a disease known as Dissociative Identity Disorder, decides to lock himself inside the house for 30 days, in order to understand what happens in your life. She is Madison Walker, a girl who works as a clerk in a central tele sex. Madison has multiple personalities. With desperate and suicidal tendencies after some unfortunate events in your life, Madison decides to close it at home and documenting his search for meaning in life. But she was given a deadline to find answers: 30 days. If she can not take away his own life. Who comes to help the girl in his journey is Dr. Elizabeth Burns, who does everything for Madison to connect to reality and can find what you seek, the support that young never received from friends or relatives, who left after she was diagnosed with the disorder. \n\nOriginal Title: Waking Madison \nTranslated Title: The 30th Day \nGenre: Drama \nLaunching in the U.S.: 2010 \nVoiced launch in Brazil: 2014 \nDirector: Katherine Brooks \nOrigin: USA \nDuration: 1h29min \nIMDB: http://www.imdb.com/title/tt0831280/ \n\nSize: 4.65 GB \nFile Extension:. MKV \nVideo Quality: Blu-Ray \nVideo codec: H.264 / AVC \nAudio Codec: AC3/DTS \nResolution: 1280 x 720 \nAudio Language: English / Portuguese \nSubtitles: Portuguese\n\n\nFormat                                   : Matroska\nFormat version                           : Version 2\nFile size                                : 4.65 GiB\nDuration                                 : 1h 28mn\nOverall bit rate                         : 7 478 Kbps\nEncoded date                             : UTC 2014-07-10 15:23:37\nWriting application                      : mkvmerge v5.6.0 ('Kenya Kane') built on May 27 2012 16:44:04\nWriting library                          : libebml v1.2.3 + libmatroska v1.3.0\n\nVideo\nID                                       : 1\nFormat                                   : AVC\nFormat/Info                              : Advanced Video Codec\nFormat profile                           : &lt;a class=&quot;__cf_email__&quot; href=&quot;/cdn-cgi/l/email-protection&quot; data-cfemail=&quot;e6ae8f818ea6aad2c8d7&quot;&gt;[email&amp;#160;protected]&lt;/a&gt;&lt;script cf-hash='f9e31' type=&quot;text/javascript&quot;&gt;\n/* &lt;![CDATA[ */!function(){try{var t=&quot;currentScript&quot;in document?document.currentScript:function(){for(var t=document.getElementsByTagName(&quot;script&quot;),e=t.length;e--;)if(t[e].getAttribute(&quot;cf-hash&quot;))return t[e]}();if(t&amp;&amp;t.previousSibling){var e,r,n,i,c=t.previousSibling,a=c.getAttribute(&quot;data-cfemail&quot;);if(a){for(e=&quot;&quot;,r=parseInt(a.substr(0,2),16),n=2;a.length-n;n+=2)i=parseInt(a.substr(n,2),16)^r,e+=String.fromCharCode(i);e=document.createTextNode(e),c.parentNode.replaceChild(e,c)}}}catch(u){}}();/* ]]&gt; */&lt;/script&gt;\nFormat settings, CABAC                   : Yes\nFormat settings, ReFrames                : 5 frames\nMuxing mode                              : Header stripping\nCodec ID                                 : V_MPEG4/ISO/AVC\nDuration                                 : 1h 28mn\nBit rate                                 : 5 525 Kbps\nWidth                                    : 1 280 pixels\nHeight                                   : 720 pixels\nDisplay aspect ratio                     : 16:9\nFrame rate                               : 23.976 fps\nColor space                              : YUV\nChroma subsampling                       : 4:2:0\nBit depth                                : 8 bits\nScan type                                : Progressive\nBits/(Pixel*Frame)                       : 0.250\nStream size                              : 3.34 GiB (72%)\nTitle                                    : O.30Âº.Dia.2014.720p.BluRay.x264-iFPD.DUAL.Thyrso10\nWriting library                          : x264 core 138 r2358 9e941d1\nEncoding settings                        : cabac=1 / ref=5 / deblock=1:0:0 / analyse=0x3:0x113 / me=umh / subme=7 / psy=1 / psy_rd=1.00:0.00 / mixed_ref=1 / me_range=16 / chroma_me=1 / trellis=1 / 8x8dct=1 / cqm=0 / deadzone=21,11 / fast_pskip=0 / chroma_qp_offset=-2 / threads=12 / lookahead_threads=2 / sliced_threads=0 / nr=0 / decimate=1 / interlaced=0 / bluray_compat=0 / constrained_intra=0 / bframes=3 / b_pyramid=2 / b_adapt=2 / b_bias=0 / direct=3 / weightb=1 / open_gop=0 / weightp=2 / keyint=250 / keyint_min=23 / scenecut=40 / intra_refresh=0 / rc_lookahead=50 / rc=2pass / mbtree=1 / bitrate=5525 / ratetol=1.0 / qcomp=0.60 / qpmin=0 / qpmax=69 / qpstep=4 / cplxblur=20.0 / qblur=0.5 / ip_ratio=1.40 / aq=1:1.00\nLanguage                                 : English\nDefault                                  : Yes\nForced                                   : No\n\nAudio #1\nID                                       : 2\nFormat                                   : AC-3\nFormat/Info                              : Audio Coding 3\nMode extension                           : CM (complete main)\nFormat settings, Endianness              : Big\nMuxing mode                              : Header stripping\nCodec ID                                 : A_AC3\nDuration                                 : 1h 28mn\nBit rate mode                            : Constant\nBit rate                                 : 448 Kbps\nChannel(s)                               : 2 channels\nChannel positions                        : Front: L R\nSampling rate                            : 48.0 KHz\nBit depth                                : 16 bits\nCompression mode                         : Lossy\nDelay relative to video                  : 24ms\nStream size                              : 285 MiB (6%)\nTitle                                    : Thyrso10\nLanguage                                 : Portuguese\nDefault                                  : Yes\nForced                                   : Yes\n\nAudio #2\nID                                       : 3\nFormat                                   : DTS\nFormat/Info                              : Digital Theater Systems\nMuxing mode                              : Header stripping\nCodec ID                                 : A_DTS\nDuration                                 : 1h 28mn\nBit rate mode                            : Constant\nBit rate                                 : 1 510 Kbps\nChannel(s)                               : 6 channels\nChannel positions                        : Front: L C R, Side: L R, LFE\nSampling rate                            : 48.0 KHz\nBit depth                                : 24 bits\nCompression mode                         : Lossy\nStream size                              : 961 MiB (20%)\nTitle                                    : Thyrso10\nLanguage                                 : English\nDefault                                  : No\nForced                                   : No\n\n\nSEED PLEASE\n\nENJOY...","torrent":{"xt":"urn:btih:5f081b8b7a57ba206f2c82b9d081c8764ab07854","amp;dn":"Waking+Madison+2010+720p+BluRay+x264+iFPD+DUAL+Thyrso10","amp;tr":["udp%3A%2F%2Ftracker.openbittorrent.com%3A80","udp%3A%2F%2Fopen.demonii.com%3A1337","udp%3A%2F%2Ftracker.coppersurfer.tk%3A6969","udp%3A%2F%2Fexodus.desync.com%3A6969"],"infoHash":"5f081b8b7a57ba206f2c82b9d081c8764ab07854","infoHashBuffer":{"type":"Buffer","data":[95,8,27,139,122,87,186,32,111,44,130,185,208,129,200,118,74,176,120,84]},"announce":[],"urlList":[]}}